<svg xmlns="http://www.w3.org/2000/svg" xmlns:xlink="http://www.w3.org/1999/xlink" width="500" zoomAndPan="magnify" viewBox="0 0 375 374.999991" height="500" preserveAspectRatio="xMidYMid meet" version="1.0"><defs><clipPath id="a3df6f6b8f"><path d="M 5.257812 5.257812 L 369.757812 5.257812 L 369.757812 369.757812 L 5.257812 369.757812 Z M 5.257812 5.257812 " clip-rule="nonzero"/></clipPath><clipPath id="fd512cdb20"><path d="M 369 182 L 369.757812 182 L 369.757812 193 L 369 193 Z M 369 182 " clip-rule="nonzero"/></clipPath><clipPath id="03c62e3bda"><path d="M 188 5.257812 L 369.757812 5.257812 L 369.757812 369.757812 L 188 369.757812 Z M 188 5.257812 " clip-rule="nonzero"/></clipPath></defs><path fill="#f8fafc" d="M 160.085938 231.769531 C 160.085938 233.898438 158.351562 235.632812 156.226562 235.632812 L 134.988281 235.632812 C 132.859375 235.632812 131.128906 233.898438 131.128906 231.769531 C 131.128906 229.640625 132.859375 227.910156 134.988281 227.910156 L 156.226562 227.910156 C 158.351562 227.910156 160.085938 229.640625 160.085938 231.769531 Z M 134.988281 225.59375 C 131.585938 225.59375 128.808594 228.367188 128.808594 231.769531 C 128.808594 235.175781 131.585938 237.945312 134.988281 237.945312 L 156.226562 237.945312 C 159.628906 237.945312 162.402344 235.175781 162.402344 231.769531 C 162.402344 228.367188 159.628906 225.59375 156.226562 225.59375 L 134.988281 225.59375 " fill-opacity="1" fill-rule="nonzero"/><path fill="#f8fafc" d="M 153.773438 275.066406 L 134.503906 275.066406 C 130.894531 275.066406 127.953125 272.46875 127.953125 269.269531 C 127.953125 266.082031 130.894531 263.484375 134.503906 263.484375 L 153.773438 263.484375 C 157.390625 263.484375 160.324219 266.082031 160.324219 269.269531 C 160.324219 272.46875 157.390625 275.066406 153.773438 275.066406 Z M 160.324219 283.429688 C 160.324219 286.621094 157.390625 289.222656 153.773438 289.222656 L 134.503906 289.222656 C 130.894531 289.222656 127.953125 286.621094 127.953125 283.429688 C 127.953125 280.238281 130.894531 277.636719 134.503906 277.636719 L 153.773438 277.636719 C 157.390625 277.636719 160.324219 280.238281 160.324219 283.429688 Z M 160.324219 297.589844 C 160.324219 300.78125 157.390625 303.378906 153.773438 303.378906 L 134.503906 303.378906 C 130.894531 303.378906 127.953125 300.78125 127.953125 297.589844 C 127.953125 294.398438 130.894531 291.796875 134.503906 291.796875 L 153.773438 291.796875 C 157.390625 291.796875 160.324219 294.398438 160.324219 297.589844 Z M 160.324219 311.746094 C 160.324219 314.9375 157.390625 317.535156 153.773438 317.535156 L 134.503906 317.535156 C 130.894531 317.535156 127.953125 314.9375 127.953125 311.746094 C 127.953125 308.550781 130.894531 305.953125 134.503906 305.953125 L 153.773438 305.953125 C 157.390625 305.953125 160.324219 308.550781 160.324219 311.746094 Z M 162.640625 269.269531 C 162.640625 264.800781 158.664062 261.164062 153.773438 261.164062 L 134.503906 261.164062 C 129.613281 261.164062 125.636719 264.800781 125.636719 269.269531 C 125.636719 272.316406 127.476562 274.964844 130.191406 276.351562 C 127.476562 277.738281 125.636719 280.390625 125.636719 283.429688 C 125.636719 286.46875 127.476562 289.121094 130.191406 290.507812 C 127.476562 291.898438 125.636719 294.546875 125.636719 297.589844 C 125.636719 300.628906 127.476562 303.277344 130.191406 304.664062 C 127.476562 306.054688 125.636719 308.703125 125.636719 311.746094 C 125.636719 316.21875 129.613281 319.851562 134.503906 319.851562 L 153.773438 319.851562 C 158.664062 319.851562 162.640625 316.21875 162.640625 311.746094 C 162.640625 308.703125 160.800781 306.054688 158.089844 304.664062 C 160.800781 303.277344 162.640625 300.628906 162.640625 297.589844 C 162.640625 294.546875 160.800781 291.898438 158.089844 290.507812 C 160.800781 289.121094 162.640625 286.46875 162.640625 283.429688 C 162.640625 280.390625 160.800781 277.738281 158.089844 276.351562 C 160.800781 274.964844 162.640625 272.316406 162.640625 269.269531 " fill-opacity="1" fill-rule="nonzero"/><g clip-path="url(#a3df6f6b8f)"><path fill="#f8fafc" d="M 261.621094 312.15625 C 261.621094 324.035156 251.957031 333.699219 240.078125 333.699219 L 134.921875 333.699219 C 123.039062 333.699219 113.375 324.035156 113.375 312.15625 L 113.375 62.839844 C 113.375 50.964844 123.039062 41.296875 134.921875 41.296875 L 240.078125 41.296875 C 251.957031 41.296875 261.621094 50.964844 261.621094 62.839844 L 261.621094 312.15625 M 187.5 5.238281 C 86.839844 5.238281 5.238281 86.839844 5.238281 187.5 C 5.238281 288.15625 86.839844 369.753906 187.5 369.753906 C 288.15625 369.753906 369.757812 288.15625 369.757812 187.5 C 369.757812 86.839844 288.15625 5.238281 187.5 5.238281 " fill-opacity="1" fill-rule="nonzero"/></g><path fill="#f8fafc" d="M 202.941406 221.992188 L 202.941406 241.546875 C 202.941406 244.671875 200.402344 247.210938 197.277344 247.210938 L 177.722656 247.210938 C 174.597656 247.210938 172.054688 244.671875 172.054688 241.546875 L 172.054688 221.992188 C 172.054688 218.867188 174.597656 216.324219 177.722656 216.324219 L 197.277344 216.324219 C 200.402344 216.324219 202.941406 218.867188 202.941406 221.992188 M 177.722656 214.011719 C 173.320312 214.011719 169.738281 217.59375 169.738281 221.992188 L 169.738281 241.546875 C 169.738281 245.949219 173.320312 249.53125 177.722656 249.53125 L 197.277344 249.53125 C 201.679688 249.53125 205.257812 245.949219 205.257812 241.546875 L 205.257812 221.992188 C 205.257812 217.59375 201.679688 214.011719 197.277344 214.011719 L 177.722656 214.011719 " fill-opacity="1" fill-rule="nonzero"/><path fill="#f8fafc" d="M 243.867188 231.769531 C 243.867188 233.898438 242.132812 235.632812 240.007812 235.632812 L 218.773438 235.632812 C 216.640625 235.632812 214.910156 233.898438 214.910156 231.769531 C 214.910156 229.640625 216.640625 227.910156 218.773438 227.910156 L 240.007812 227.910156 C 242.132812 227.910156 243.867188 229.640625 243.867188 231.769531 M 218.773438 225.589844 C 215.363281 225.589844 212.59375 228.367188 212.59375 231.769531 C 212.59375 235.175781 215.363281 237.945312 218.773438 237.945312 L 240.007812 237.945312 C 243.414062 237.945312 246.183594 235.175781 246.183594 231.769531 C 246.183594 228.367188 243.414062 225.589844 240.007812 225.589844 L 218.773438 225.589844 " fill-opacity="1" fill-rule="nonzero"/><path fill="#f8fafc" d="M 197.136719 275.066406 L 177.863281 275.066406 C 174.25 275.066406 171.3125 272.46875 171.3125 269.269531 C 171.3125 266.082031 174.25 263.484375 177.863281 263.484375 L 197.136719 263.484375 C 200.746094 263.484375 203.683594 266.082031 203.683594 269.269531 C 203.683594 272.46875 200.746094 275.066406 197.136719 275.066406 M 203.683594 283.429688 C 203.683594 286.621094 200.746094 289.222656 197.136719 289.222656 L 177.863281 289.222656 C 174.25 289.222656 171.3125 286.621094 171.3125 283.429688 C 171.3125 280.238281 174.25 277.636719 177.863281 277.636719 L 197.136719 277.636719 C 200.746094 277.636719 203.683594 280.238281 203.683594 283.429688 M 203.683594 297.589844 C 203.683594 300.78125 200.746094 303.378906 197.136719 303.378906 L 177.863281 303.378906 C 174.25 303.378906 171.3125 300.78125 171.3125 297.589844 C 171.3125 294.398438 174.25 291.796875 177.863281 291.796875 L 197.136719 291.796875 C 200.746094 291.796875 203.683594 294.398438 203.683594 297.589844 M 203.683594 311.746094 C 203.683594 314.9375 200.746094 317.535156 197.136719 317.535156 L 177.863281 317.535156 C 174.25 317.535156 171.3125 314.9375 171.3125 311.746094 C 171.3125 308.550781 174.25 305.953125 177.863281 305.953125 L 197.136719 305.953125 C 200.746094 305.953125 203.683594 308.550781 203.683594 311.746094 M 206.003906 269.269531 C 206.003906 264.800781 202.027344 261.164062 197.136719 261.164062 L 177.863281 261.164062 C 172.972656 261.164062 168.996094 264.800781 168.996094 269.269531 C 168.996094 272.316406 170.839844 274.964844 173.550781 276.351562 C 170.839844 277.738281 168.996094 280.390625 168.996094 283.429688 C 168.996094 286.46875 170.839844 289.121094 173.550781 290.507812 C 170.839844 291.898438 168.996094 294.546875 168.996094 297.589844 C 168.996094 300.628906 170.839844 303.277344 173.550781 304.664062 C 170.839844 306.054688 168.996094 308.703125 168.996094 311.746094 C 168.996094 316.21875 172.972656 319.851562 177.863281 319.851562 L 197.136719 319.851562 C 202.027344 319.851562 206.003906 316.21875 206.003906 311.746094 C 206.003906 308.703125 204.160156 306.054688 201.449219 304.664062 C 204.160156 303.277344 206.003906 300.628906 206.003906 297.589844 C 206.003906 294.546875 204.160156 291.898438 201.449219 290.507812 C 204.160156 289.121094 206.003906 286.46875 206.003906 283.429688 C 206.003906 280.390625 204.160156 277.738281 201.449219 276.351562 C 204.160156 274.964844 206.003906 272.316406 206.003906 269.269531 " fill-opacity="1" fill-rule="nonzero"/><path fill="#f8fafc" d="M 126.210938 203.53125 L 248.785156 203.53125 L 248.785156 63.199219 L 126.210938 63.199219 Z M 126.210938 203.53125 " fill-opacity="1" fill-rule="nonzero"/><path fill="#f8fafc" d="M 240.492188 275.066406 L 221.222656 275.066406 C 217.609375 275.066406 214.671875 272.46875 214.671875 269.269531 C 214.671875 266.082031 217.609375 263.484375 221.222656 263.484375 L 240.492188 263.484375 C 244.105469 263.484375 247.042969 266.082031 247.042969 269.269531 C 247.042969 272.46875 244.105469 275.066406 240.492188 275.066406 M 247.042969 283.429688 C 247.042969 286.621094 244.105469 289.222656 240.492188 289.222656 L 221.222656 289.222656 C 217.609375 289.222656 214.671875 286.621094 214.671875 283.429688 C 214.671875 280.238281 217.609375 277.636719 221.222656 277.636719 L 240.492188 277.636719 C 244.105469 277.636719 247.042969 280.238281 247.042969 283.429688 M 247.042969 297.589844 C 247.042969 300.78125 244.105469 303.378906 240.492188 303.378906 L 221.222656 303.378906 C 217.609375 303.378906 214.671875 300.78125 214.671875 297.589844 C 214.671875 294.398438 217.609375 291.796875 221.222656 291.796875 L 240.492188 291.796875 C 244.105469 291.796875 247.042969 294.398438 247.042969 297.589844 M 247.042969 311.746094 C 247.042969 314.9375 244.105469 317.535156 240.492188 317.535156 L 221.222656 317.535156 C 217.609375 317.535156 214.671875 314.9375 214.671875 311.746094 C 214.671875 308.550781 217.609375 305.953125 221.222656 305.953125 L 240.492188 305.953125 C 244.105469 305.953125 247.042969 308.550781 247.042969 311.746094 M 249.359375 269.269531 C 249.359375 264.800781 245.382812 261.164062 240.492188 261.164062 L 221.222656 261.164062 C 216.332031 261.164062 212.351562 264.800781 212.351562 269.269531 C 212.351562 272.316406 214.195312 274.964844 216.90625 276.351562 C 214.195312 277.738281 212.351562 280.390625 212.351562 283.429688 C 212.351562 286.46875 214.195312 289.121094 216.90625 290.507812 C 214.195312 291.898438 212.351562 294.546875 212.351562 297.589844 C 212.351562 300.628906 214.195312 303.277344 216.90625 304.664062 C 214.195312 306.054688 212.351562 308.703125 212.351562 311.746094 C 212.351562 316.21875 216.332031 319.851562 221.222656 319.851562 L 240.492188 319.851562 C 245.382812 319.851562 249.359375 316.21875 249.359375 311.746094 C 249.359375 308.703125 247.519531 306.054688 244.804688 304.664062 C 247.519531 303.277344 249.359375 300.628906 249.359375 297.589844 C 249.359375 294.546875 247.519531 291.898438 244.804688 290.507812 C 247.519531 289.121094 249.359375 286.46875 249.359375 283.429688 C 249.359375 280.390625 247.519531 277.738281 244.804688 276.351562 C 247.519531 274.964844 249.359375 272.316406 249.359375 269.269531 " fill-opacity="1" fill-rule="nonzero"/><path fill="#f8fafc" d="M 197.28125 225.328125 L 197.28125 238.210938 C 197.28125 240.054688 195.78125 241.554688 193.941406 241.554688 L 181.054688 241.554688 C 179.214844 241.554688 177.71875 240.054688 177.71875 238.210938 L 177.71875 225.328125 C 177.71875 223.488281 179.214844 221.988281 181.054688 221.988281 L 193.941406 221.988281 C 195.78125 221.988281 197.28125 223.488281 197.28125 225.328125 M 181.054688 219.675781 C 177.9375 219.675781 175.402344 222.210938 175.402344 225.328125 L 175.402344 238.210938 C 175.402344 241.332031 177.9375 243.867188 181.054688 243.867188 L 193.941406 243.867188 C 197.0625 243.867188 199.59375 241.332031 199.59375 238.210938 L 199.59375 225.328125 C 199.59375 222.210938 197.0625 219.675781 193.941406 219.675781 L 181.054688 219.675781 " fill-opacity="1" fill-rule="nonzero"/><path fill="#f8fafc" d="M 156.09375 48.9375 L 218.902344 48.9375 C 220.105469 48.9375 221.089844 49.921875 221.089844 51.125 C 221.089844 52.335938 220.105469 53.3125 218.902344 53.3125 L 156.09375 53.3125 C 154.886719 53.3125 153.90625 52.335938 153.90625 51.125 C 153.90625 49.921875 154.886719 48.9375 156.09375 48.9375 M 156.09375 55.632812 L 218.902344 55.632812 C 221.382812 55.632812 223.40625 53.609375 223.40625 51.125 C 223.40625 48.640625 221.382812 46.625 218.902344 46.625 L 156.09375 46.625 C 153.613281 46.625 151.589844 48.640625 151.589844 51.125 C 151.589844 53.609375 153.613281 55.632812 156.09375 55.632812 " fill-opacity="1" fill-rule="nonzero"/><g clip-path="url(#fd512cdb20)"><path fill="#ffbd59" d="M 369.6875 192.472656 L 369.6875 192.46875 L 369.6875 192.472656 M 369.695312 192.328125 L 369.695312 192.324219 L 369.695312 192.328125 M 369.695312 192.253906 L 369.695312 192.25 L 369.695312 192.253906 M 369.695312 192.183594 C 369.699219 192.175781 369.695312 192.179688 369.699219 192.175781 L 369.695312 192.183594 M 369.699219 192.109375 L 369.699219 192.105469 L 369.699219 192.109375 M 369.699219 192.035156 L 369.699219 192.03125 L 369.699219 192.035156 M 369.703125 191.960938 L 369.703125 191.957031 L 369.703125 191.960938 M 369.703125 191.890625 C 369.703125 191.882812 369.703125 191.886719 369.703125 191.878906 L 369.703125 191.890625 M 369.707031 191.816406 L 369.707031 191.808594 L 369.707031 191.816406 M 369.707031 191.746094 L 369.707031 191.734375 L 369.707031 191.746094 M 369.710938 191.671875 C 369.710938 191.667969 369.710938 191.667969 369.710938 191.660156 L 369.710938 191.671875 M 369.710938 191.601562 C 369.710938 191.59375 369.710938 191.589844 369.710938 191.582031 C 369.710938 191.589844 369.710938 191.59375 369.710938 191.601562 M 369.710938 191.527344 C 369.710938 191.523438 369.710938 191.515625 369.710938 191.511719 C 369.710938 191.515625 369.710938 191.523438 369.710938 191.527344 M 369.714844 191.453125 C 369.714844 191.449219 369.714844 191.441406 369.714844 191.433594 C 369.714844 191.441406 369.714844 191.449219 369.714844 191.453125 M 369.714844 191.382812 C 369.714844 191.375 369.714844 191.367188 369.714844 191.363281 C 369.714844 191.367188 369.714844 191.375 369.714844 191.382812 M 369.714844 191.308594 C 369.71875 191.300781 369.71875 191.296875 369.71875 191.289062 C 369.71875 191.296875 369.71875 191.300781 369.714844 191.308594 M 369.71875 191.234375 C 369.71875 191.230469 369.71875 191.222656 369.71875 191.21875 C 369.71875 191.222656 369.71875 191.230469 369.71875 191.234375 M 369.71875 191.160156 L 369.71875 191.148438 C 369.71875 191.152344 369.71875 191.15625 369.71875 191.160156 M 369.722656 191.085938 C 369.722656 191.082031 369.722656 191.078125 369.722656 191.074219 C 369.722656 191.078125 369.722656 191.082031 369.722656 191.085938 M 369.722656 191.015625 C 369.722656 191.007812 369.722656 191 369.722656 190.996094 C 369.722656 191 369.722656 191.007812 369.722656 191.015625 M 369.722656 190.941406 C 369.722656 190.9375 369.722656 190.929688 369.722656 190.921875 C 369.722656 190.929688 369.722656 190.9375 369.722656 190.941406 M 369.726562 190.871094 C 369.726562 190.863281 369.726562 190.855469 369.726562 190.847656 C 369.726562 190.855469 369.726562 190.863281 369.726562 190.871094 M 369.726562 190.796875 C 369.726562 190.789062 369.726562 190.785156 369.726562 190.777344 C 369.726562 190.785156 369.726562 190.789062 369.726562 190.796875 M 369.726562 190.722656 C 369.726562 190.714844 369.726562 190.710938 369.726562 190.707031 C 369.726562 190.710938 369.726562 190.714844 369.726562 190.722656 M 369.730469 190.648438 L 369.730469 190.636719 C 369.730469 190.640625 369.730469 190.640625 369.730469 190.648438 M 369.730469 190.574219 C 369.730469 190.570312 369.730469 190.566406 369.730469 190.558594 C 369.730469 190.566406 369.730469 190.570312 369.730469 190.574219 M 369.730469 190.503906 C 369.730469 190.496094 369.730469 190.488281 369.730469 190.484375 C 369.730469 190.488281 369.730469 190.496094 369.730469 190.503906 M 369.730469 190.429688 C 369.730469 190.421875 369.734375 190.414062 369.734375 190.410156 C 369.734375 190.414062 369.730469 190.421875 369.730469 190.429688 M 369.734375 190.355469 C 369.734375 190.351562 369.734375 190.339844 369.734375 190.335938 C 369.734375 190.339844 369.734375 190.351562 369.734375 190.355469 M 369.734375 190.285156 C 369.734375 190.273438 369.734375 190.269531 369.734375 190.257812 C 369.734375 190.261719 369.734375 190.277344 369.734375 190.285156 M 369.738281 190.210938 C 369.738281 190.199219 369.738281 190.195312 369.738281 190.183594 C 369.738281 190.191406 369.738281 190.207031 369.738281 190.210938 M 369.738281 190.136719 C 369.738281 190.125 369.738281 190.121094 369.738281 190.109375 C 369.738281 190.113281 369.738281 190.132812 369.738281 190.136719 M 369.738281 190.066406 C 369.738281 190.050781 369.738281 190.050781 369.738281 190.039062 C 369.738281 190.042969 369.738281 190.058594 369.738281 190.066406 M 369.738281 189.992188 C 369.738281 189.980469 369.738281 189.980469 369.738281 189.964844 C 369.738281 189.972656 369.738281 189.984375 369.738281 189.992188 M 369.742188 189.917969 C 369.742188 189.90625 369.742188 189.910156 369.742188 189.898438 C 369.742188 189.902344 369.742188 189.910156 369.742188 189.917969 M 369.742188 189.84375 C 369.742188 189.832031 369.742188 189.835938 369.742188 189.824219 C 369.742188 189.828125 369.742188 189.835938 369.742188 189.84375 M 369.742188 189.769531 C 369.742188 189.757812 369.742188 189.761719 369.742188 189.75 C 369.742188 189.757812 369.742188 189.761719 369.742188 189.769531 M 369.742188 189.699219 C 369.742188 189.6875 369.742188 189.679688 369.742188 189.667969 C 369.742188 189.675781 369.742188 189.691406 369.742188 189.699219 M 369.742188 189.625 C 369.742188 189.613281 369.742188 189.609375 369.746094 189.597656 C 369.746094 189.605469 369.742188 189.617188 369.742188 189.625 M 369.746094 189.550781 C 369.746094 189.539062 369.746094 189.535156 369.746094 189.523438 C 369.746094 189.53125 369.746094 189.546875 369.746094 189.550781 M 369.746094 189.476562 C 369.746094 189.464844 369.746094 189.464844 369.746094 189.453125 C 369.746094 189.457031 369.746094 189.472656 369.746094 189.476562 M 369.746094 189.40625 C 369.746094 189.390625 369.746094 189.390625 369.746094 189.378906 C 369.746094 189.382812 369.746094 189.398438 369.746094 189.40625 M 369.746094 189.332031 C 369.746094 189.320312 369.746094 189.320312 369.746094 189.308594 C 369.746094 189.316406 369.746094 189.324219 369.746094 189.332031 M 369.746094 189.257812 C 369.746094 189.246094 369.746094 189.242188 369.746094 189.230469 C 369.746094 189.238281 369.746094 189.25 369.746094 189.257812 M 369.75 189.183594 C 369.75 189.171875 369.75 189.160156 369.75 189.148438 C 369.75 189.160156 369.75 189.171875 369.75 189.183594 M 369.75 189.113281 C 369.75 189.101562 369.75 189.085938 369.75 189.074219 C 369.75 189.085938 369.75 189.101562 369.75 189.113281 M 369.75 189.039062 C 369.75 189.027344 369.75 189.023438 369.75 189.007812 C 369.75 189.015625 369.75 189.03125 369.75 189.039062 M 369.75 188.964844 C 369.75 188.953125 369.75 188.949219 369.75 188.9375 C 369.75 188.945312 369.75 188.957031 369.75 188.964844 M 369.75 188.894531 C 369.75 188.882812 369.75 188.882812 369.75 188.871094 C 369.75 188.875 369.75 188.886719 369.75 188.894531 M 369.75 188.820312 C 369.75 188.808594 369.75 188.804688 369.75 188.792969 C 369.75 188.800781 369.75 188.8125 369.75 188.820312 M 369.75 188.746094 C 369.75 188.734375 369.75 188.734375 369.753906 188.71875 C 369.75 188.726562 369.75 188.742188 369.75 188.746094 M 369.753906 188.675781 C 369.753906 188.660156 369.753906 188.660156 369.753906 188.648438 C 369.753906 188.652344 369.753906 188.667969 369.753906 188.675781 M 369.753906 188.601562 C 369.753906 188.589844 369.753906 188.578125 369.753906 188.566406 C 369.753906 188.578125 369.753906 188.589844 369.753906 188.601562 M 369.753906 188.527344 C 369.753906 188.515625 369.753906 188.5 369.753906 188.488281 C 369.753906 188.5 369.753906 188.515625 369.753906 188.527344 M 369.753906 188.453125 C 369.753906 188.441406 369.753906 188.429688 369.753906 188.417969 C 369.753906 188.429688 369.753906 188.441406 369.753906 188.453125 M 369.753906 188.378906 C 369.753906 188.367188 369.753906 188.355469 369.753906 188.34375 C 369.753906 188.355469 369.753906 188.367188 369.753906 188.378906 M 369.753906 188.308594 C 369.753906 188.296875 369.753906 188.277344 369.753906 188.261719 C 369.753906 188.277344 369.753906 188.296875 369.753906 188.308594 M 369.753906 188.234375 C 369.753906 188.222656 369.753906 188.210938 369.753906 188.199219 C 369.753906 188.210938 369.753906 188.222656 369.753906 188.234375 M 369.753906 188.160156 C 369.753906 188.148438 369.753906 188.144531 369.753906 188.132812 C 369.753906 188.136719 369.753906 188.152344 369.753906 188.160156 M 369.753906 188.085938 C 369.753906 188.074219 369.753906 188.058594 369.753906 188.046875 C 369.753906 188.058594 369.753906 188.074219 369.753906 188.085938 M 369.753906 188.011719 C 369.753906 188 369.753906 187.988281 369.753906 187.976562 C 369.753906 187.988281 369.753906 188 369.753906 188.011719 M 369.753906 187.9375 C 369.753906 187.921875 369.753906 187.914062 369.753906 187.894531 C 369.753906 187.90625 369.753906 187.925781 369.753906 187.9375 M 369.753906 187.867188 C 369.753906 187.847656 369.753906 187.832031 369.753906 187.8125 C 369.753906 187.832031 369.753906 187.847656 369.753906 187.867188 M 369.753906 187.792969 C 369.753906 187.695312 369.757812 187.597656 369.757812 187.5 C 369.757812 187.59375 369.753906 187.695312 369.753906 187.792969 M 369.757812 187.5 C 369.757812 187.398438 369.753906 187.300781 369.753906 187.203125 C 369.753906 187.300781 369.757812 187.402344 369.757812 187.5 M 369.753906 187.179688 C 369.753906 187.164062 369.753906 187.148438 369.753906 187.128906 C 369.753906 187.148438 369.753906 187.164062 369.753906 187.179688 M 369.753906 187.101562 C 369.753906 187.082031 369.753906 187.074219 369.753906 187.054688 C 369.753906 187.070312 369.753906 187.089844 369.753906 187.101562 M 369.753906 187.019531 C 369.753906 187.007812 369.753906 186.996094 369.753906 186.984375 C 369.753906 186.996094 369.753906 187.007812 369.753906 187.019531 M 369.753906 186.949219 C 369.753906 186.933594 369.753906 186.921875 369.753906 186.910156 C 369.753906 186.921875 369.753906 186.933594 369.753906 186.949219 M 369.753906 186.863281 C 369.753906 186.851562 369.753906 186.847656 369.753906 186.835938 C 369.753906 186.84375 369.753906 186.859375 369.753906 186.863281 M 369.753906 186.796875 C 369.753906 186.785156 369.753906 186.773438 369.753906 186.761719 C 369.753906 186.773438 369.753906 186.785156 369.753906 186.796875 M 369.753906 186.734375 C 369.753906 186.71875 369.753906 186.699219 369.753906 186.6875 C 369.753906 186.699219 369.753906 186.71875 369.753906 186.734375 M 369.753906 186.652344 C 369.753906 186.640625 369.753906 186.628906 369.753906 186.617188 C 369.753906 186.628906 369.753906 186.640625 369.753906 186.652344 M 369.753906 186.578125 C 369.753906 186.566406 369.753906 186.554688 369.753906 186.542969 C 369.753906 186.554688 369.753906 186.566406 369.753906 186.578125 M 369.753906 186.507812 C 369.753906 186.496094 369.753906 186.480469 369.753906 186.46875 C 369.753906 186.480469 369.753906 186.496094 369.753906 186.507812 M 369.753906 186.429688 C 369.753906 186.417969 369.753906 186.40625 369.753906 186.394531 C 369.753906 186.40625 369.753906 186.417969 369.753906 186.429688 M 369.753906 186.347656 C 369.753906 186.335938 369.753906 186.335938 369.753906 186.320312 C 369.753906 186.328125 369.753906 186.34375 369.753906 186.347656 M 369.753906 186.277344 C 369.75 186.261719 369.75 186.261719 369.75 186.25 C 369.75 186.253906 369.75 186.269531 369.753906 186.277344 M 369.75 186.203125 C 369.75 186.1875 369.75 186.1875 369.75 186.175781 C 369.75 186.179688 369.75 186.195312 369.75 186.203125 M 369.75 186.125 C 369.75 186.113281 369.75 186.113281 369.75 186.101562 C 369.75 186.109375 369.75 186.121094 369.75 186.125 M 369.75 186.054688 C 369.75 186.042969 369.75 186.039062 369.75 186.027344 C 369.75 186.035156 369.75 186.050781 369.75 186.054688 M 369.75 185.984375 C 369.75 185.96875 369.75 185.964844 369.75 185.953125 C 369.75 185.960938 369.75 185.976562 369.75 185.984375 M 369.75 185.917969 C 369.75 185.90625 369.75 185.890625 369.75 185.878906 C 369.75 185.890625 369.75 185.90625 369.75 185.917969 M 369.75 185.84375 C 369.75 185.832031 369.75 185.820312 369.75 185.808594 C 369.75 185.820312 369.75 185.832031 369.75 185.84375 M 369.746094 185.761719 C 369.746094 185.75 369.746094 185.746094 369.746094 185.734375 C 369.746094 185.742188 369.746094 185.757812 369.746094 185.761719 M 369.746094 185.683594 C 369.746094 185.671875 369.746094 185.671875 369.746094 185.660156 C 369.746094 185.667969 369.746094 185.675781 369.746094 185.683594 M 369.746094 185.617188 C 369.746094 185.601562 369.746094 185.597656 369.746094 185.585938 C 369.746094 185.59375 369.746094 185.609375 369.746094 185.617188 M 369.746094 185.539062 C 369.746094 185.527344 369.746094 185.527344 369.746094 185.515625 C 369.746094 185.519531 369.746094 185.535156 369.746094 185.539062 M 369.746094 185.46875 C 369.746094 185.457031 369.746094 185.453125 369.746094 185.441406 C 369.746094 185.445312 369.746094 185.464844 369.746094 185.46875 M 369.746094 185.394531 C 369.742188 185.382812 369.742188 185.378906 369.742188 185.367188 C 369.742188 185.375 369.746094 185.386719 369.746094 185.394531 M 369.742188 185.324219 C 369.742188 185.308594 369.742188 185.304688 369.742188 185.292969 C 369.742188 185.300781 369.742188 185.316406 369.742188 185.324219 M 369.742188 185.242188 C 369.742188 185.230469 369.742188 185.234375 369.742188 185.222656 C 369.742188 185.226562 369.742188 185.234375 369.742188 185.242188 M 369.742188 185.171875 C 369.742188 185.15625 369.742188 185.160156 369.742188 185.148438 C 369.742188 185.15625 369.742188 185.164062 369.742188 185.171875 M 369.742188 185.09375 C 369.742188 185.082031 369.742188 185.085938 369.742188 185.074219 C 369.742188 185.082031 369.742188 185.089844 369.742188 185.09375 M 369.738281 185.027344 C 369.738281 185.011719 369.738281 185.011719 369.738281 185 C 369.738281 185.007812 369.738281 185.019531 369.738281 185.027344 M 369.738281 184.953125 C 369.738281 184.941406 369.738281 184.9375 369.738281 184.925781 C 369.738281 184.933594 369.738281 184.949219 369.738281 184.953125 M 369.738281 184.882812 C 369.738281 184.871094 369.738281 184.867188 369.738281 184.851562 C 369.738281 184.859375 369.738281 184.878906 369.738281 184.882812 M 369.738281 184.808594 C 369.738281 184.796875 369.738281 184.792969 369.738281 184.78125 C 369.738281 184.785156 369.738281 184.800781 369.738281 184.808594 M 369.734375 184.734375 C 369.734375 184.722656 369.734375 184.71875 369.734375 184.707031 C 369.734375 184.714844 369.734375 184.730469 369.734375 184.734375 M 369.734375 184.65625 C 369.734375 184.652344 369.734375 184.640625 369.734375 184.636719 C 369.734375 184.640625 369.734375 184.652344 369.734375 184.65625 M 369.734375 184.582031 C 369.734375 184.578125 369.730469 184.570312 369.730469 184.5625 C 369.730469 184.570312 369.734375 184.578125 369.734375 184.582031 M 369.730469 184.511719 C 369.730469 184.507812 369.730469 184.5 369.730469 184.492188 C 369.730469 184.5 369.730469 184.507812 369.730469 184.511719 M 369.730469 184.4375 C 369.730469 184.429688 369.730469 184.425781 369.730469 184.421875 C 369.730469 184.425781 369.730469 184.429688 369.730469 184.4375 M 369.730469 184.359375 L 369.730469 184.347656 C 369.730469 184.351562 369.730469 184.355469 369.730469 184.359375 M 369.726562 184.289062 C 369.726562 184.285156 369.726562 184.28125 369.726562 184.273438 C 369.726562 184.28125 369.726562 184.285156 369.726562 184.289062 M 369.726562 184.21875 C 369.726562 184.210938 369.726562 184.207031 369.726562 184.199219 C 369.726562 184.207031 369.726562 184.210938 369.726562 184.21875 M 369.726562 184.148438 C 369.726562 184.140625 369.726562 184.132812 369.726562 184.125 C 369.726562 184.132812 369.726562 184.140625 369.726562 184.148438 M 369.722656 184.074219 C 369.722656 184.066406 369.722656 184.058594 369.722656 184.054688 C 369.722656 184.058594 369.722656 184.066406 369.722656 184.074219 M 369.722656 184 C 369.722656 183.996094 369.722656 183.988281 369.722656 183.980469 C 369.722656 183.988281 369.722656 183.996094 369.722656 184 M 369.722656 183.921875 C 369.722656 183.917969 369.722656 183.914062 369.722656 183.910156 C 369.722656 183.914062 369.722656 183.917969 369.722656 183.921875 M 369.71875 183.847656 L 369.71875 183.835938 C 369.71875 183.839844 369.71875 183.84375 369.71875 183.847656 M 369.71875 183.777344 C 369.71875 183.769531 369.71875 183.765625 369.71875 183.761719 C 369.71875 183.765625 369.71875 183.769531 369.71875 183.777344 M 369.71875 183.707031 C 369.71875 183.699219 369.71875 183.695312 369.714844 183.6875 C 369.71875 183.691406 369.71875 183.699219 369.71875 183.707031 M 369.714844 183.632812 C 369.714844 183.628906 369.714844 183.621094 369.714844 183.613281 C 369.714844 183.621094 369.714844 183.628906 369.714844 183.632812 M 369.714844 183.5625 C 369.714844 183.554688 369.714844 183.546875 369.714844 183.542969 C 369.714844 183.546875 369.714844 183.554688 369.714844 183.5625 M 369.710938 183.484375 C 369.710938 183.480469 369.710938 183.472656 369.710938 183.46875 C 369.710938 183.472656 369.710938 183.480469 369.710938 183.484375 M 369.710938 183.414062 C 369.710938 183.40625 369.710938 183.402344 369.710938 183.394531 C 369.710938 183.402344 369.710938 183.40625 369.710938 183.414062 M 369.710938 183.335938 C 369.710938 183.328125 369.710938 183.332031 369.710938 183.324219 L 369.710938 183.335938 M 369.707031 183.261719 L 369.707031 183.25 L 369.707031 183.261719 M 369.707031 183.1875 L 369.707031 183.179688 L 369.707031 183.1875 M 369.703125 183.117188 C 369.703125 183.109375 369.703125 183.113281 369.703125 183.105469 L 369.703125 183.117188 M 369.703125 183.039062 L 369.703125 183.035156 L 369.703125 183.039062 M 369.699219 182.964844 L 369.699219 182.960938 L 369.699219 182.964844 M 369.699219 182.890625 L 369.699219 182.886719 L 369.699219 182.890625 M 369.699219 182.820312 C 369.695312 182.816406 369.699219 182.820312 369.695312 182.8125 L 369.699219 182.820312 M 369.695312 182.746094 L 369.695312 182.742188 L 369.695312 182.746094 M 369.695312 182.671875 L 369.695312 182.667969 L 369.695312 182.671875 " fill-opacity="1" fill-rule="nonzero"/></g><g clip-path="url(#03c62e3bda)"><path fill="#f1f5f9" d="M 188.917969 369.738281 L 188.917969 333.699219 L 240.078125 333.699219 C 251.957031 333.699219 261.621094 324.035156 261.621094 312.15625 L 261.621094 62.839844 C 261.621094 50.964844 251.957031 41.296875 240.078125 41.296875 L 188.917969 41.296875 L 188.917969 5.253906 C 287.210938 6.007812 366.988281 84.554688 369.683594 182.378906 C 369.6875 182.402344 369.6875 182.425781 369.6875 182.449219 C 369.6875 182.476562 369.6875 182.5 369.6875 182.523438 C 369.691406 182.574219 369.691406 182.621094 369.695312 182.667969 L 369.695312 182.671875 C 369.695312 182.695312 369.695312 182.71875 369.695312 182.742188 L 369.695312 182.746094 C 369.695312 182.769531 369.695312 182.789062 369.695312 182.8125 C 369.699219 182.820312 369.695312 182.816406 369.699219 182.820312 C 369.699219 182.847656 369.699219 182.863281 369.699219 182.886719 L 369.699219 182.890625 C 369.699219 182.914062 369.699219 182.933594 369.699219 182.960938 L 369.699219 182.964844 C 369.703125 182.992188 369.703125 183.007812 369.703125 183.035156 L 369.703125 183.039062 C 369.703125 183.0625 369.703125 183.082031 369.703125 183.105469 C 369.703125 183.113281 369.703125 183.109375 369.703125 183.117188 C 369.703125 183.140625 369.707031 183.15625 369.707031 183.179688 L 369.707031 183.1875 C 369.707031 183.210938 369.707031 183.226562 369.707031 183.25 L 369.707031 183.261719 C 369.707031 183.285156 369.707031 183.300781 369.710938 183.324219 C 369.710938 183.332031 369.710938 183.328125 369.710938 183.335938 C 369.710938 183.359375 369.710938 183.371094 369.710938 183.394531 C 369.710938 183.402344 369.710938 183.40625 369.710938 183.414062 C 369.710938 183.429688 369.710938 183.449219 369.710938 183.46875 C 369.710938 183.472656 369.710938 183.480469 369.710938 183.484375 C 369.714844 183.503906 369.714844 183.523438 369.714844 183.542969 C 369.714844 183.546875 369.714844 183.554688 369.714844 183.5625 C 369.714844 183.578125 369.714844 183.59375 369.714844 183.613281 C 369.714844 183.621094 369.714844 183.628906 369.714844 183.632812 C 369.714844 183.652344 369.714844 183.667969 369.714844 183.6875 C 369.71875 183.695312 369.71875 183.699219 369.71875 183.707031 C 369.71875 183.726562 369.71875 183.742188 369.71875 183.761719 C 369.71875 183.765625 369.71875 183.769531 369.71875 183.777344 C 369.71875 183.796875 369.71875 183.816406 369.71875 183.835938 L 369.71875 183.847656 C 369.71875 183.867188 369.71875 183.890625 369.722656 183.910156 C 369.722656 183.914062 369.722656 183.917969 369.722656 183.921875 C 369.722656 183.941406 369.722656 183.960938 369.722656 183.980469 C 369.722656 183.988281 369.722656 183.996094 369.722656 184 C 369.722656 184.019531 369.722656 184.035156 369.722656 184.054688 C 369.722656 184.058594 369.722656 184.066406 369.722656 184.074219 C 369.722656 184.089844 369.726562 184.109375 369.726562 184.125 C 369.726562 184.132812 369.726562 184.140625 369.726562 184.148438 C 369.726562 184.164062 369.726562 184.179688 369.726562 184.199219 C 369.726562 184.207031 369.726562 184.210938 369.726562 184.21875 C 369.726562 184.238281 369.726562 184.253906 369.726562 184.273438 C 369.726562 184.28125 369.726562 184.285156 369.726562 184.289062 C 369.726562 184.308594 369.726562 184.328125 369.730469 184.347656 L 369.730469 184.359375 C 369.730469 184.378906 369.730469 184.402344 369.730469 184.421875 C 369.730469 184.425781 369.730469 184.429688 369.730469 184.4375 C 369.730469 184.457031 369.730469 184.472656 369.730469 184.492188 C 369.730469 184.5 369.730469 184.507812 369.730469 184.511719 C 369.730469 184.53125 369.730469 184.542969 369.730469 184.5625 C 369.730469 184.570312 369.734375 184.578125 369.734375 184.582031 C 369.734375 184.601562 369.734375 184.617188 369.734375 184.636719 C 369.734375 184.640625 369.734375 184.652344 369.734375 184.65625 C 369.734375 184.675781 369.734375 184.6875 369.734375 184.707031 C 369.734375 184.71875 369.734375 184.722656 369.734375 184.734375 C 369.734375 184.753906 369.734375 184.761719 369.738281 184.78125 C 369.738281 184.792969 369.738281 184.796875 369.738281 184.808594 C 369.738281 184.828125 369.738281 184.835938 369.738281 184.851562 C 369.738281 184.867188 369.738281 184.871094 369.738281 184.882812 C 369.738281 184.902344 369.738281 184.910156 369.738281 184.925781 C 369.738281 184.9375 369.738281 184.941406 369.738281 184.953125 C 369.738281 184.972656 369.738281 184.984375 369.738281 185 C 369.738281 185.011719 369.738281 185.011719 369.738281 185.027344 C 369.738281 185.042969 369.742188 185.054688 369.742188 185.074219 C 369.742188 185.085938 369.742188 185.082031 369.742188 185.09375 C 369.742188 185.113281 369.742188 185.128906 369.742188 185.148438 C 369.742188 185.160156 369.742188 185.15625 369.742188 185.171875 C 369.742188 185.1875 369.742188 185.203125 369.742188 185.222656 C 369.742188 185.234375 369.742188 185.230469 369.742188 185.242188 C 369.742188 185.261719 369.742188 185.277344 369.742188 185.292969 C 369.742188 185.304688 369.742188 185.308594 369.742188 185.324219 C 369.742188 185.339844 369.742188 185.347656 369.742188 185.367188 C 369.742188 185.378906 369.742188 185.382812 369.746094 185.394531 C 369.746094 185.414062 369.746094 185.421875 369.746094 185.441406 C 369.746094 185.453125 369.746094 185.457031 369.746094 185.46875 C 369.746094 185.488281 369.746094 185.496094 369.746094 185.515625 C 369.746094 185.527344 369.746094 185.527344 369.746094 185.539062 C 369.746094 185.558594 369.746094 185.570312 369.746094 185.585938 C 369.746094 185.597656 369.746094 185.601562 369.746094 185.617188 C 369.746094 185.632812 369.746094 185.644531 369.746094 185.660156 C 369.746094 185.671875 369.746094 185.671875 369.746094 185.683594 C 369.746094 185.703125 369.746094 185.714844 369.746094 185.734375 C 369.746094 185.746094 369.746094 185.75 369.746094 185.761719 C 369.75 185.78125 369.75 185.789062 369.75 185.808594 C 369.75 185.820312 369.75 185.832031 369.75 185.84375 C 369.75 185.855469 369.75 185.867188 369.75 185.878906 C 369.75 185.890625 369.75 185.90625 369.75 185.917969 C 369.75 185.929688 369.75 185.941406 369.75 185.953125 C 369.75 185.964844 369.75 185.96875 369.75 185.984375 C 369.75 186 369.75 186.007812 369.75 186.027344 C 369.75 186.039062 369.75 186.042969 369.75 186.054688 C 369.75 186.074219 369.75 186.082031 369.75 186.101562 C 369.75 186.113281 369.75 186.113281 369.75 186.125 C 369.75 186.144531 369.75 186.15625 369.75 186.175781 C 369.75 186.1875 369.75 186.1875 369.75 186.203125 C 369.75 186.21875 369.75 186.230469 369.75 186.25 C 369.75 186.261719 369.75 186.261719 369.753906 186.277344 C 369.753906 186.292969 369.753906 186.304688 369.753906 186.320312 C 369.753906 186.335938 369.753906 186.335938 369.753906 186.347656 C 369.753906 186.367188 369.753906 186.378906 369.753906 186.394531 C 369.753906 186.40625 369.753906 186.417969 369.753906 186.429688 C 369.753906 186.441406 369.753906 186.457031 369.753906 186.46875 C 369.753906 186.480469 369.753906 186.496094 369.753906 186.507812 C 369.753906 186.523438 369.753906 186.53125 369.753906 186.542969 C 369.753906 186.554688 369.753906 186.566406 369.753906 186.578125 C 369.753906 186.589844 369.753906 186.601562 369.753906 186.617188 C 369.753906 186.628906 369.753906 186.640625 369.753906 186.652344 C 369.753906 186.664062 369.753906 186.675781 369.753906 186.6875 C 369.753906 186.699219 369.753906 186.71875 369.753906 186.734375 C 369.753906 186.746094 369.753906 186.75 369.753906 186.761719 C 369.753906 186.773438 369.753906 186.785156 369.753906 186.796875 C 369.753906 186.808594 369.753906 186.824219 369.753906 186.835938 C 369.753906 186.847656 369.753906 186.851562 369.753906 186.863281 C 369.753906 186.882812 369.753906 186.890625 369.753906 186.910156 C 369.753906 186.921875 369.753906 186.933594 369.753906 186.949219 C 369.753906 186.960938 369.753906 186.972656 369.753906 186.984375 C 369.753906 186.996094 369.753906 187.007812 369.753906 187.019531 C 369.753906 187.03125 369.753906 187.042969 369.753906 187.054688 C 369.753906 187.074219 369.753906 187.082031 369.753906 187.101562 C 369.753906 187.113281 369.753906 187.117188 369.753906 187.128906 C 369.753906 187.148438 369.753906 187.164062 369.753906 187.179688 C 369.753906 187.1875 369.753906 187.199219 369.753906 187.203125 C 369.753906 187.300781 369.757812 187.398438 369.757812 187.5 C 369.757812 187.597656 369.753906 187.695312 369.753906 187.792969 C 369.753906 187.796875 369.753906 187.808594 369.753906 187.8125 C 369.753906 187.832031 369.753906 187.847656 369.753906 187.867188 C 369.753906 187.878906 369.753906 187.882812 369.753906 187.894531 C 369.753906 187.914062 369.753906 187.921875 369.753906 187.9375 C 369.753906 187.953125 369.753906 187.964844 369.753906 187.976562 C 369.753906 187.988281 369.753906 188 369.753906 188.011719 C 369.753906 188.027344 369.753906 188.035156 369.753906 188.046875 C 369.753906 188.058594 369.753906 188.074219 369.753906 188.085938 C 369.753906 188.105469 369.753906 188.113281 369.753906 188.132812 C 369.753906 188.144531 369.753906 188.148438 369.753906 188.160156 C 369.753906 188.171875 369.753906 188.183594 369.753906 188.199219 C 369.753906 188.210938 369.753906 188.222656 369.753906 188.234375 C 369.753906 188.246094 369.753906 188.25 369.753906 188.261719 C 369.753906 188.277344 369.753906 188.296875 369.753906 188.308594 C 369.753906 188.320312 369.753906 188.332031 369.753906 188.34375 C 369.753906 188.355469 369.753906 188.367188 369.753906 188.378906 C 369.753906 188.394531 369.753906 188.40625 369.753906 188.417969 C 369.753906 188.429688 369.753906 188.441406 369.753906 188.453125 C 369.753906 188.464844 369.753906 188.472656 369.753906 188.488281 C 369.753906 188.5 369.753906 188.515625 369.753906 188.527344 C 369.753906 188.539062 369.753906 188.554688 369.753906 188.566406 C 369.753906 188.578125 369.753906 188.589844 369.753906 188.601562 C 369.753906 188.621094 369.753906 188.628906 369.753906 188.648438 C 369.753906 188.660156 369.753906 188.660156 369.753906 188.675781 C 369.753906 188.691406 369.753906 188.703125 369.753906 188.71875 C 369.75 188.734375 369.75 188.734375 369.75 188.746094 C 369.75 188.765625 369.75 188.777344 369.75 188.792969 C 369.75 188.804688 369.75 188.808594 369.75 188.820312 C 369.75 188.839844 369.75 188.851562 369.75 188.871094 C 369.75 188.882812 369.75 188.882812 369.75 188.894531 C 369.75 188.914062 369.75 188.921875 369.75 188.9375 C 369.75 188.949219 369.75 188.953125 369.75 188.964844 C 369.75 188.984375 369.75 188.992188 369.75 189.007812 C 369.75 189.023438 369.75 189.027344 369.75 189.039062 C 369.75 189.050781 369.75 189.0625 369.75 189.074219 C 369.75 189.085938 369.75 189.101562 369.75 189.113281 C 369.75 189.125 369.75 189.136719 369.75 189.148438 C 369.75 189.160156 369.75 189.171875 369.75 189.183594 C 369.75 189.203125 369.75 189.210938 369.746094 189.230469 C 369.746094 189.242188 369.746094 189.246094 369.746094 189.257812 C 369.746094 189.277344 369.746094 189.289062 369.746094 189.308594 C 369.746094 189.320312 369.746094 189.320312 369.746094 189.332031 C 369.746094 189.347656 369.746094 189.359375 369.746094 189.378906 C 369.746094 189.390625 369.746094 189.390625 369.746094 189.40625 C 369.746094 189.421875 369.746094 189.433594 369.746094 189.453125 C 369.746094 189.464844 369.746094 189.464844 369.746094 189.476562 C 369.746094 189.496094 369.746094 189.503906 369.746094 189.523438 C 369.746094 189.535156 369.746094 189.539062 369.746094 189.550781 C 369.746094 189.570312 369.746094 189.578125 369.746094 189.597656 C 369.742188 189.609375 369.742188 189.613281 369.742188 189.625 C 369.742188 189.644531 369.742188 189.652344 369.742188 189.667969 C 369.742188 189.679688 369.742188 189.6875 369.742188 189.699219 C 369.742188 189.714844 369.742188 189.734375 369.742188 189.75 C 369.742188 189.761719 369.742188 189.757812 369.742188 189.769531 C 369.742188 189.789062 369.742188 189.804688 369.742188 189.824219 C 369.742188 189.835938 369.742188 189.832031 369.742188 189.84375 C 369.742188 189.863281 369.742188 189.878906 369.742188 189.898438 C 369.742188 189.910156 369.742188 189.90625 369.742188 189.917969 C 369.742188 189.933594 369.738281 189.949219 369.738281 189.964844 C 369.738281 189.980469 369.738281 189.980469 369.738281 189.992188 C 369.738281 190.007812 369.738281 190.019531 369.738281 190.039062 C 369.738281 190.050781 369.738281 190.050781 369.738281 190.066406 C 369.738281 190.082031 369.738281 190.089844 369.738281 190.109375 C 369.738281 190.121094 369.738281 190.125 369.738281 190.136719 C 369.738281 190.15625 369.738281 190.164062 369.738281 190.183594 C 369.738281 190.195312 369.738281 190.199219 369.738281 190.210938 C 369.734375 190.230469 369.734375 190.238281 369.734375 190.257812 C 369.734375 190.269531 369.734375 190.273438 369.734375 190.285156 C 369.734375 190.304688 369.734375 190.316406 369.734375 190.335938 C 369.734375 190.339844 369.734375 190.351562 369.734375 190.355469 C 369.734375 190.375 369.734375 190.390625 369.734375 190.410156 C 369.734375 190.414062 369.730469 190.421875 369.730469 190.429688 C 369.730469 190.449219 369.730469 190.464844 369.730469 190.484375 C 369.730469 190.488281 369.730469 190.496094 369.730469 190.503906 C 369.730469 190.523438 369.730469 190.539062 369.730469 190.558594 C 369.730469 190.566406 369.730469 190.570312 369.730469 190.574219 C 369.730469 190.59375 369.730469 190.617188 369.730469 190.636719 L 369.730469 190.648438 C 369.726562 190.667969 369.726562 190.6875 369.726562 190.707031 C 369.726562 190.710938 369.726562 190.714844 369.726562 190.722656 C 369.726562 190.742188 369.726562 190.757812 369.726562 190.777344 C 369.726562 190.785156 369.726562 190.789062 369.726562 190.796875 C 369.726562 190.816406 369.726562 190.832031 369.726562 190.847656 C 369.726562 190.855469 369.726562 190.863281 369.726562 190.871094 C 369.726562 190.886719 369.722656 190.90625 369.722656 190.921875 C 369.722656 190.929688 369.722656 190.9375 369.722656 190.941406 C 369.722656 190.960938 369.722656 190.976562 369.722656 190.996094 C 369.722656 191 369.722656 191.007812 369.722656 191.015625 C 369.722656 191.035156 369.722656 191.054688 369.722656 191.074219 C 369.722656 191.078125 369.722656 191.082031 369.722656 191.085938 C 369.71875 191.105469 369.71875 191.128906 369.71875 191.148438 L 369.71875 191.160156 C 369.71875 191.179688 369.71875 191.199219 369.71875 191.21875 C 369.71875 191.222656 369.71875 191.230469 369.71875 191.234375 C 369.71875 191.253906 369.71875 191.269531 369.71875 191.289062 C 369.71875 191.296875 369.71875 191.300781 369.714844 191.308594 C 369.714844 191.328125 369.714844 191.34375 369.714844 191.363281 C 369.714844 191.367188 369.714844 191.375 369.714844 191.382812 C 369.714844 191.402344 369.714844 191.414062 369.714844 191.433594 C 369.714844 191.441406 369.714844 191.449219 369.714844 191.453125 C 369.714844 191.472656 369.714844 191.492188 369.710938 191.511719 C 369.710938 191.515625 369.710938 191.523438 369.710938 191.527344 C 369.710938 191.546875 369.710938 191.566406 369.710938 191.582031 C 369.710938 191.589844 369.710938 191.59375 369.710938 191.601562 C 369.710938 191.625 369.710938 191.636719 369.710938 191.660156 C 369.710938 191.667969 369.710938 191.667969 369.710938 191.671875 C 369.707031 191.695312 369.707031 191.710938 369.707031 191.734375 L 369.707031 191.746094 C 369.707031 191.769531 369.707031 191.785156 369.707031 191.808594 L 369.707031 191.816406 C 369.707031 191.839844 369.703125 191.855469 369.703125 191.878906 C 369.703125 191.886719 369.703125 191.882812 369.703125 191.890625 C 369.703125 191.914062 369.703125 191.933594 369.703125 191.957031 L 369.703125 191.960938 C 369.703125 191.988281 369.703125 192.003906 369.699219 192.03125 L 369.699219 192.035156 C 369.699219 192.058594 369.699219 192.082031 369.699219 192.105469 L 369.699219 192.109375 C 369.699219 192.132812 369.699219 192.152344 369.699219 192.175781 C 369.695312 192.179688 369.699219 192.175781 369.695312 192.183594 C 369.695312 192.207031 369.695312 192.226562 369.695312 192.25 L 369.695312 192.253906 C 369.695312 192.277344 369.695312 192.300781 369.695312 192.324219 L 369.695312 192.328125 C 369.691406 192.375 369.691406 192.421875 369.6875 192.46875 L 369.6875 192.472656 C 369.6875 192.523438 369.6875 192.570312 369.683594 192.617188 C 366.988281 290.4375 287.210938 368.988281 188.917969 369.738281 " fill-opacity="1" fill-rule="nonzero"/></g><path fill="#f1f5f9" d="M 197.277344 249.53125 L 188.917969 249.53125 L 188.917969 247.210938 L 197.277344 247.210938 C 200.402344 247.210938 202.941406 244.671875 202.941406 241.546875 L 202.941406 221.992188 C 202.941406 218.867188 200.402344 216.324219 197.277344 216.324219 L 188.917969 216.324219 L 188.917969 214.011719 L 197.277344 214.011719 C 201.679688 214.011719 205.257812 217.59375 205.257812 221.992188 L 205.257812 241.546875 C 205.257812 245.949219 201.679688 249.53125 197.277344 249.53125 " fill-opacity="1" fill-rule="nonzero"/><path fill="#f1f5f9" d="M 240.007812 237.945312 L 218.773438 237.945312 C 215.363281 237.945312 212.59375 235.175781 212.59375 231.769531 C 212.59375 228.367188 215.363281 225.589844 218.773438 225.589844 L 240.007812 225.589844 C 243.414062 225.589844 246.183594 228.367188 246.183594 231.769531 C 246.183594 235.175781 243.414062 237.945312 240.007812 237.945312 M 214.910156 231.769531 C 214.910156 233.898438 216.640625 235.632812 218.773438 235.632812 L 240.007812 235.632812 C 242.132812 235.632812 243.867188 233.898438 243.867188 231.769531 C 243.867188 229.640625 242.132812 227.910156 240.007812 227.910156 L 218.773438 227.910156 C 216.640625 227.910156 214.910156 229.640625 214.910156 231.769531 " fill-opacity="1" fill-rule="nonzero"/><path fill="#f1f5f9" d="M 197.136719 319.851562 L 188.917969 319.851562 L 188.917969 317.535156 L 197.136719 317.535156 C 200.746094 317.535156 203.683594 314.9375 203.683594 311.746094 C 203.683594 308.550781 200.746094 305.953125 197.136719 305.953125 L 188.917969 305.953125 L 188.917969 303.378906 L 197.136719 303.378906 C 200.746094 303.378906 203.683594 300.78125 203.683594 297.589844 C 203.683594 294.398438 200.746094 291.796875 197.136719 291.796875 L 188.917969 291.796875 L 188.917969 289.222656 L 197.136719 289.222656 C 200.746094 289.222656 203.683594 286.621094 203.683594 283.429688 C 203.683594 280.238281 200.746094 277.636719 197.136719 277.636719 L 188.917969 277.636719 L 188.917969 275.066406 L 197.136719 275.066406 C 200.746094 275.066406 203.683594 272.46875 203.683594 269.269531 C 203.683594 266.082031 200.746094 263.484375 197.136719 263.484375 L 188.917969 263.484375 L 188.917969 261.164062 L 197.136719 261.164062 C 202.027344 261.164062 206.003906 264.800781 206.003906 269.269531 C 206.003906 272.316406 204.160156 274.964844 201.449219 276.351562 C 204.160156 277.738281 206.003906 280.390625 206.003906 283.429688 C 206.003906 286.46875 204.160156 289.121094 201.449219 290.507812 C 204.160156 291.898438 206.003906 294.546875 206.003906 297.589844 C 206.003906 300.628906 204.160156 303.277344 201.449219 304.664062 C 204.160156 306.054688 206.003906 308.703125 206.003906 311.746094 C 206.003906 316.21875 202.027344 319.851562 197.136719 319.851562 " fill-opacity="1" fill-rule="nonzero"/><path fill="#f1f5f9" d="M 188.917969 203.53125 L 248.785156 203.53125 L 248.785156 63.199219 L 188.917969 63.199219 Z M 188.917969 203.53125 " fill-opacity="1" fill-rule="nonzero"/><path fill="#f1f5f9" d="M 240.492188 319.851562 L 221.222656 319.851562 C 216.332031 319.851562 212.351562 316.21875 212.351562 311.746094 C 212.351562 308.703125 214.195312 306.054688 216.90625 304.664062 C 214.195312 303.277344 212.351562 300.628906 212.351562 297.589844 C 212.351562 294.546875 214.195312 291.898438 216.90625 290.507812 C 214.195312 289.121094 212.351562 286.46875 212.351562 283.429688 C 212.351562 280.390625 214.195312 277.738281 216.90625 276.351562 C 214.195312 274.964844 212.351562 272.316406 212.351562 269.269531 C 212.351562 264.800781 216.332031 261.164062 221.222656 261.164062 L 240.492188 261.164062 C 245.382812 261.164062 249.359375 264.800781 249.359375 269.269531 C 249.359375 272.316406 247.519531 274.964844 244.804688 276.351562 C 247.519531 277.738281 249.359375 280.390625 249.359375 283.429688 C 249.359375 286.46875 247.519531 289.121094 244.804688 290.507812 C 247.519531 291.898438 249.359375 294.546875 249.359375 297.589844 C 249.359375 300.628906 247.519531 303.277344 244.804688 304.664062 C 247.519531 306.054688 249.359375 308.703125 249.359375 311.746094 C 249.359375 316.21875 245.382812 319.851562 240.492188 319.851562 M 214.671875 311.746094 C 214.671875 314.9375 217.609375 317.535156 221.222656 317.535156 L 240.492188 317.535156 C 244.105469 317.535156 247.042969 314.9375 247.042969 311.746094 C 247.042969 308.550781 244.105469 305.953125 240.492188 305.953125 L 221.222656 305.953125 C 217.609375 305.953125 214.671875 308.550781 214.671875 311.746094 M 214.671875 297.589844 C 214.671875 300.78125 217.609375 303.378906 221.222656 303.378906 L 240.492188 303.378906 C 244.105469 303.378906 247.042969 300.78125 247.042969 297.589844 C 247.042969 294.398438 244.105469 291.796875 240.492188 291.796875 L 221.222656 291.796875 C 217.609375 291.796875 214.671875 294.398438 214.671875 297.589844 M 214.671875 283.429688 C 214.671875 286.621094 217.609375 289.222656 221.222656 289.222656 L 240.492188 289.222656 C 244.105469 289.222656 247.042969 286.621094 247.042969 283.429688 C 247.042969 280.238281 244.105469 277.636719 240.492188 277.636719 L 221.222656 277.636719 C 217.609375 277.636719 214.671875 280.238281 214.671875 283.429688 M 214.671875 269.269531 C 214.671875 272.46875 217.609375 275.066406 221.222656 275.066406 L 240.492188 275.066406 C 244.105469 275.066406 247.042969 272.46875 247.042969 269.269531 C 247.042969 266.082031 244.105469 263.484375 240.492188 263.484375 L 221.222656 263.484375 C 217.609375 263.484375 214.671875 266.082031 214.671875 269.269531 " fill-opacity="1" fill-rule="nonzero"/><path fill="#f1f5f9" d="M 193.941406 243.867188 L 188.917969 243.867188 L 188.917969 241.554688 L 193.941406 241.554688 C 195.78125 241.554688 197.28125 240.054688 197.28125 238.210938 L 197.28125 225.328125 C 197.28125 223.488281 195.78125 221.988281 193.941406 221.988281 L 188.917969 221.988281 L 188.917969 219.675781 L 193.941406 219.675781 C 197.0625 219.675781 199.59375 222.210938 199.59375 225.328125 L 199.59375 238.210938 C 199.59375 241.332031 197.0625 243.867188 193.941406 243.867188 " fill-opacity="1" fill-rule="nonzero"/><path fill="#f1f5f9" d="M 218.902344 55.632812 L 188.917969 55.632812 L 188.917969 53.3125 L 218.902344 53.3125 C 220.105469 53.3125 221.089844 52.335938 221.089844 51.125 C 221.089844 49.921875 220.105469 48.9375 218.902344 48.9375 L 188.917969 48.9375 L 188.917969 46.625 L 218.902344 46.625 C 221.382812 46.625 223.40625 48.640625 223.40625 51.125 C 223.40625 53.609375 221.382812 55.632812 218.902344 55.632812 " fill-opacity="1" fill-rule="nonzero"/></svg>